<?xml version="1.0" encoding="UTF-8" standalone="no"?>
<!-- Created with Inkscape (http://www.inkscape.org/) -->

<svg
   xmlns:dc="http://purl.org/dc/elements/1.1/"
   xmlns:cc="http://creativecommons.org/ns#"
   xmlns:rdf="http://www.w3.org/1999/02/22-rdf-syntax-ns#"
   xmlns:svg="http://www.w3.org/2000/svg"
   xmlns="http://www.w3.org/2000/svg"
   xmlns:sodipodi="http://sodipodi.sourceforge.net/DTD/sodipodi-0.dtd"
   xmlns:inkscape="http://www.inkscape.org/namespaces/inkscape"
   width="500"
   height="380"
   id="svg2"
   version="1.1"
   inkscape:version="0.48.4 r9939"
   sodipodi:docname="cumulus-branding.svg">
  <defs
     id="defs4" />
  <sodipodi:namedview
     id="base"
     pagecolor="#c2ffff"
     bordercolor="#666666"
     borderopacity="1.0"
     inkscape:pageopacity="0.87058824"
     inkscape:pageshadow="2"
     inkscape:zoom="0.49497475"
     inkscape:cx="330.60182"
     inkscape:cy="114.22042"
     inkscape:document-units="px"
     inkscape:current-layer="layer1"
     showgrid="false"
     inkscape:window-width="916"
     inkscape:window-height="669"
     inkscape:window-x="1067"
     inkscape:window-y="480"
     inkscape:window-maximized="0" />
  <metadata
     id="metadata7">
    <rdf:RDF>
      <cc:Work
         rdf:about="">
        <dc:format>image/svg+xml</dc:format>
        <dc:type
           rdf:resource="http://purl.org/dc/dcmitype/StillImage" />
        <dc:title />
      </cc:Work>
    </rdf:RDF>
  </metadata>
  <g
     inkscape:label="Layer 1"
     inkscape:groupmode="layer"
     id="layer1"
     transform="translate(0,-672.36218)">
    <path
       style="fill:#ffffff;fill-opacity:1;stroke-width:100;stroke-miterlimit:4;stroke-dasharray:none"
       d="m 238.09463,686.65236 c -27.79716,0 -52.66091,13.96135 -69.33104,35.93818 -11.38829,-10.17886 -25.97298,-16.31602 -41.87196,-16.31602 -36.336417,0 -65.810649,31.84996 -65.810649,71.14643 0,17.03437 5.554413,32.66262 14.785648,44.912 -41.570286,13.5246 -71.5675216,52.23256 -71.5675216,97.89612 0,56.91214 46.6099396,103.04853 104.1208026,103.04853 23.70929,0 45.53144,-7.8773 63.03575,-21.082 23.1821,23.7025 57.7779,38.7291 96.45878,38.7291 43.36241,0 81.64842,-18.8879 104.41073,-47.70291 11.57138,6.62694 24.66347,10.43371 38.55865,10.43371 46.79295,0 84.69652,-42.41387 84.69652,-94.71884 l 0,-2.01803 c -0.97905,-51.50938 -38.60493,-92.70076 -84.69652,-92.70076 -3.03796,0 -6.03203,0.20962 -8.98736,0.55818 l -0.0413,-0.4723 c -0.629,-23.48614 -24.80923,-42.29284 -54.42114,-42.29284 -6.78332,0 -13.26948,0.99246 -19.25863,2.79089 -5.89291,-49.8675 -44.05104,-88.14944 -90.08065,-88.14944 z"
       id="path3765"
       inkscape:connector-curvature="0" />
    <path
       style="fill:#8dbbb8;fill-opacity:0.25098041;stroke-width:100;stroke-miterlimit:4;stroke-dasharray:none"
       d="m 260.57671,796.63091 c -27.2887,0 -51.69764,11.65359 -68.06283,29.99774 -11.17998,-8.49634 -25.49786,-13.61905 -41.10603,-13.61905 -35.67175,0 -64.606839,26.58528 -64.606839,59.3862 0,14.21865 5.45282,27.26361 14.515189,37.48821 -40.655351,11.24629 -70.0365,43.35698 -70.258401,81.28419 18.727971,19.7483 47.571757,32.399 79.935201,32.399 23.27558,0 44.69857,-6.5752 61.88268,-17.5973 22.75806,19.7846 56.72103,32.3273 94.69434,32.3273 42.56923,0 80.15489,-15.7657 102.50083,-39.81773 11.35973,5.53153 24.21233,8.70903 37.85334,8.70903 45.87352,0 83.04461,-35.30694 83.14724,-78.88294 -15.1955,-15.49891 -36.86742,-25.19523 -60.86622,-25.19523 -2.9824,0 -5.92169,0.17496 -8.82295,0.46592 l -0.0405,-0.39424 c -0.6175,-19.60397 -24.35542,-35.30199 -53.42567,-35.30199 -6.65923,0 -13.02674,0.82841 -18.90633,2.32957 -5.78512,-41.62459 -43.24526,-73.57868 -88.43289,-73.57868 z"
       id="path3765-4"
       inkscape:connector-curvature="0" />
    <flowRoot
       xml:space="preserve"
       id="flowRoot3778"
       style="fill:black;stroke:none;stroke-opacity:1;stroke-width:1px;stroke-linejoin:miter;stroke-linecap:butt;fill-opacity:1;font-family:Ubuntu;font-style:normal;font-weight:normal;font-size:200px;line-height:125%;letter-spacing:0px;word-spacing:0px;-inkscape-font-specification:Ubuntu;font-stretch:normal;font-variant:normal"><flowRegion
         id="flowRegion3780"><rect
           id="rect3782"
           width="226.27417"
           height="228.29448"
           x="115.15739"
           y="105.23851"
           style="font-size:200px" /></flowRegion><flowPara
         id="flowPara3784" /></flowRoot>    <text
       xml:space="preserve"
       style="font-size:200px;font-style:normal;font-variant:normal;font-weight:normal;font-stretch:normal;line-height:125%;letter-spacing:0px;word-spacing:0px;fill:#0f3542;fill-opacity:1;stroke:none;font-family:Ubuntu;-inkscape-font-specification:Ubuntu"
       x="167.68532"
       y="941.24542"
       id="text2992"
       sodipodi:linespacing="125%"><tspan
         sodipodi:role="line"
         id="tspan2994"
         x="167.68532"
         y="941.24542">C</tspan></text>
  </g>
</svg>
