<?xml version="1.0" encoding="UTF-8" standalone="no"?>
<svg
   xmlns:dc="http://purl.org/dc/elements/1.1/"
   xmlns:cc="http://creativecommons.org/ns#"
   xmlns:rdf="http://www.w3.org/1999/02/22-rdf-syntax-ns#"
   xmlns:svg="http://www.w3.org/2000/svg"
   xmlns="http://www.w3.org/2000/svg"
   xmlns:sodipodi="http://sodipodi.sourceforge.net/DTD/sodipodi-0.dtd"
   xmlns:inkscape="http://www.inkscape.org/namespaces/inkscape"
   width="1150"
   height="209"
   viewBox="0 0 1150 209"
   version="1.1"
   id="svg2"
   inkscape:version="0.48.4 r9939"
   sodipodi:docname="chart-logo-light.svg">
  <metadata
     id="metadata25">
    <rdf:RDF>
      <cc:Work
         rdf:about="">
        <dc:format>image/svg+xml</dc:format>
        <dc:type
           rdf:resource="http://purl.org/dc/dcmitype/StillImage" />
      </cc:Work>
    </rdf:RDF>
  </metadata>
  <sodipodi:namedview
     pagecolor="#a5a5a5"
     bordercolor="#666666"
     borderopacity="1"
     objecttolerance="10"
     gridtolerance="10"
     guidetolerance="10"
     inkscape:pageopacity="1"
     inkscape:pageshadow="2"
     inkscape:window-width="1280"
     inkscape:window-height="1388"
     id="namedview23"
     showgrid="false"
     inkscape:zoom="0.30956522"
     inkscape:cx="575"
     inkscape:cy="77.5"
     inkscape:window-x="1280"
     inkscape:window-y="24"
     inkscape:window-maximized="0"
     inkscape:current-layer="svg2" />
  <!-- Generator: Sketch 3.8.3 (29802) - http://www.bohemiancoding.com/sketch -->
  <title
     id="title4">chart-logo-light</title>
  <desc
     id="desc6">Created with Sketch.</desc>
  <defs
     id="defs8" />
  <g
     id="Page-1"
     style="fill:none;stroke:none"
     transform="translate(0,6)">
    <g
       id="chart-logo-light">
      <path
         d="m 1149.0517,73.205511 -27.5933,0 0,46.086119 c 0,3.02085 0.069,5.8125 0.2025,8.37165 0.1289,2.55585 0.6663,4.7951 1.602,6.69633 0.929,1.90122 2.3251,3.41329 4.1966,4.52468 1.8648,1.12127 4.5263,1.67367 7.9947,1.67367 2.2682,0 4.6051,-0.25724 6.9971,-0.7816 2.3988,-0.52931 4.667,-1.3109 6.7963,-2.36457 l 0.5992,13.97803 c -2.6615,1.18064 -5.6328,2.03643 -8.8936,2.56574 -3.2659,0.51612 -6.3677,0.78325 -9.2971,0.78325 -5.5977,0 -10.0621,-0.72553 -13.3916,-2.16835 -3.3328,-1.43788 -5.9324,-3.47266 -7.8039,-6.10107 -1.8598,-2.6251 -3.0951,-5.87516 -3.6944,-9.75016 -0.5943,-3.8717 -0.8989,-8.17212 -0.8989,-12.89633 l 0,-50.617389 -20.3887,0 0,-13.000213 20.3887,0 0,-26.186755 15.5911,0 0,26.186755 27.5933,0 0,13.000213 z"
         id="Fill-6"
         inkscape:connector-curvature="0"
         style="fill:#ffffff" />
      <path
         d="m 1015.7374,59.633941 15.9025,0 0.01,11.376011 c 1.0696,-2.242553 4.4259,-9.258776 17.1964,-12.325798 6.7544,-1.620904 10.0504,-1.51867 11.6724,-1.51867 1.2287,0 3.8752,0.159947 4.9482,0.291862 1.0713,0.131915 2.1427,0.394095 3.2157,0.78984 l -1.0044,15.636862 c -2.68,-0.79149 -5.4939,-1.188883 -8.4384,-1.188883 -9.6452,0 -16.6457,3.06867 -20.9946,9.204362 -4.3556,6.135691 -6.5317,14.545266 -6.5317,25.233673 l 0,45.12643 -15.9728,0 0,-92.625689 z"
         id="Fill-21"
         inkscape:connector-curvature="0"
         style="fill:#ffffff" />
      <path
         d="m 959.5928,107.72896 c -10.04535,0 -18.01667,1.38346 -23.90896,4.15697 -5.89563,2.76856 -8.84177,7.32292 -8.84177,13.65649 0,5.8059 1.97693,9.92989 5.92743,12.36867 3.95051,2.44207 8.87359,3.66063 14.76922,3.66063 4.55146,0 8.53879,-0.75521 11.95531,-2.27553 3.41485,-1.51372 6.25888,-3.52872 8.53712,-6.03675 2.27657,-2.50474 4.02081,-5.44149 5.22438,-8.80697 1.20524,-3.36548 1.87649,-9.90186 2.01041,-13.73069 l 0,-2.99282 -15.67314,0 z M 914.18537,71.508426 c 4.82264,-4.880852 10.5492,-8.477181 17.17802,-10.787341 6.6305,-2.305213 13.36143,-3.462766 20.1928,-3.462766 13.93056,0 23.97591,3.235213 30.1377,9.699043 6.16011,6.467127 9.24352,16.296436 9.24352,29.487925 l 0,39.782233 c 0,2.6416 0.13057,5.37883 0.40175,8.215 0.26615,2.83782 0.60262,5.44149 1.00436,7.81761 l -15.06885,0 c -0.53733,-2.10899 -0.83697,-4.45213 -0.90393,-7.02612 -0.0686,-2.57234 -0.10043,-4.84952 -0.10043,-6.82824 l -0.40175,0 c -3.08173,4.75058 -7.20131,8.64372 -12.35706,11.67776 -5.15742,3.0324 -11.35269,4.55271 -18.58581,4.55271 -4.82096,0 -9.34396,-0.59526 -13.5623,-1.7825 -4.22001,-1.18558 -7.90437,-2.93345 -11.04971,-5.24526 -3.14869,-2.30686 -5.6596,-5.17601 -7.5361,-8.60745 -1.87649,-3.43143 -2.81222,-7.38888 -2.81222,-11.87728 0,-7.64942 2.00873,-13.6565 6.0262,-18.01133 4.02081,-4.35485 9.00749,-7.58346 14.97008,-9.69575 5.95925,-2.110638 12.38887,-3.431436 19.29054,-3.960744 6.89498,-0.524362 13.22584,-0.79149 18.98588,-0.79149 l 6.02788,0 0,-2.770213 c 0,-6.729308 -2.04389,-11.808032 -6.12831,-15.241117 -4.08945,-3.428138 -9.81434,-5.14468 -17.1797,-5.14468 -5.09214,0 -10.08049,0.826117 -14.96841,2.473404 -4.88959,1.652234 -9.21172,4.191595 -12.95968,7.621383 l -9.84447,-10.094787 z"
         id="Fill-20"
         inkscape:connector-curvature="0"
         style="fill:#ffffff" />
      <path
         d="m 813.23596,2.253766 15.59279,0 0,70.760798 0.40343,0 c 1.06462,-1.843511 2.52598,-3.647447 4.39745,-5.416756 1.85975,-1.774255 4.09781,-3.383617 6.69745,-4.826436 2.59462,-1.446117 5.49389,-2.623457 8.69782,-3.543563 3.19389,-0.920107 6.59032,-1.381809 10.19767,-1.381809 6.12329,0 11.42132,0.916808 15.88573,2.75867 4.46609,1.841862 8.16551,4.399362 11.09658,7.680745 2.9361,3.28633 5.10051,7.256968 6.50161,11.911915 1.40109,4.666489 2.09745,9.750159 2.09745,15.262553 l 0,56.916327 -15.59614,0 0,-55.339944 c 0,-7.743404 -1.73254,-13.852713 -5.19426,-18.318032 -3.46339,-4.453777 -8.86855,-6.691383 -16.19708,-6.691383 -5.06536,0 -9.42766,0.8525 -13.09527,2.564096 -3.66427,1.709947 -6.6623,4.127287 -8.99913,7.281702 -2.33013,3.151117 -4.06099,6.895851 -5.19927,11.227606 -1.12657,4.333405 -1.69404,9.125215 -1.69404,14.368835 l 0,44.90712 -15.59279,0 0,-150.122444 z"
         id="Fill-4"
         inkscape:connector-curvature="0"
         style="fill:#ffffff" />
      <path
         d="m 783.44711,83.255117 c -3.3278,-3.940957 -6.92511,-6.798564 -10.79192,-8.57117 -3.87016,-1.766011 -8.1337,-2.656436 -12.79563,-2.656436 -5.19928,0 -9.79928,0.890425 -13.79331,2.656436 -4.00073,1.772606 -7.30342,4.239415 -9.89636,7.387234 -2.60466,3.14617 -4.56987,6.791968 -5.90233,10.935744 -1.33413,4.125639 -2.00036,8.562925 -2.00036,13.287125 0,4.72915 0.76499,9.15655 2.3,13.29208 1.53501,4.13388 3.66426,7.78133 6.40284,10.93574 2.7235,3.14617 6.02117,5.60803 9.88631,7.37569 3.87184,1.77756 8.20233,2.65974 13.00321,2.65974 10.2596,0 18.19243,-3.80245 23.78842,-11.42053 l 11.59709,10.83351 c -4.53137,5.11829 -9.86455,8.86303 -15.99454,11.2276 -6.13501,2.35963 -12.59476,3.54192 -19.39097,3.54192 -7.19462,0 -13.79331,-1.18229 -19.79273,-3.54192 -6.00109,-2.36457 -11.09155,-5.71686 -15.29818,-10.04861 -4.19658,-4.33341 -7.46244,-9.44841 -9.79425,-15.35984 -2.33013,-5.90814 -3.49854,-12.40825 -3.49854,-19.49538 0,-6.960156 1.16841,-13.392656 3.49854,-19.299146 2.33181,-5.906489 5.62781,-11.033032 9.89804,-15.364787 4.26856,-4.333404 9.35902,-7.710426 15.29148,-10.140957 5.93414,-2.423937 12.50102,-3.6425 19.69564,-3.6425 6.93013,0 13.49366,1.180638 19.69061,3.545212 6.20196,2.364575 11.62387,6.038405 16.29585,11.033032 l -12.39891,10.830213 z"
         id="Fill-1"
         inkscape:connector-curvature="0"
         style="fill:#ffffff" />
      <path
         d="m 663.55551,104.2685 c 0,-7.255319 -2.1075,-13.127181 -6.32751,-17.613936 -4.22002,-4.486755 -10.14745,-6.730958 -17.78232,-6.730958 -7.63653,0 -13.56397,2.244203 -17.78231,6.730958 -4.22002,4.486755 -6.32751,10.358617 -6.32751,17.613936 0,7.25862 2.10749,13.13213 6.32751,17.61394 4.21834,4.4884 10.14578,6.73095 17.78231,6.73095 7.63487,0 13.5623,-2.24255 17.78232,-6.73095 4.22001,-4.48181 6.32751,-10.35532 6.32751,-17.61394 l 0,0 z m 31.07846,48.09452 -27.72722,0 0,-12.66713 -0.40008,0 c -1.20691,1.71819 -2.78209,3.46277 -4.72219,5.24692 -1.94345,1.7792 -4.22002,3.39681 -6.83305,4.84622 -2.60968,1.45436 -5.49388,2.63995 -8.63923,3.56335 -3.14869,0.92176 -6.39614,1.38676 -9.74403,1.38676 -7.23311,0 -13.79832,-1.22351 -19.69061,-3.66229 -5.89563,-2.44042 -10.95094,-5.86856 -15.17096,-10.29101 -4.22001,-4.41915 -7.46747,-9.66606 -9.74403,-15.7358 -2.27824,-6.06808 -3.41652,-12.73308 -3.41652,-19.99005 0,-6.72766 1.03784,-13.161809 3.11521,-19.297501 2.07569,-6.135691 5.02351,-11.57718 8.84177,-16.329414 3.8166,-4.748937 8.47017,-8.54149 13.96405,-11.379309 5.49054,-2.834521 11.71929,-4.254255 18.68457,-4.254255 6.29403,0 12.15619,0.958032 17.58144,2.869149 5.42526,1.912766 9.87628,5.180957 13.36143,9.796329 l 0.40175,0 0,-64.3332443 30.1377,0 0,150.2312753 z"
         id="Fill-19"
         inkscape:connector-curvature="0"
         style="fill:#ffffff" />
      <path
         d="m 542.00218,152.3645 30.1377,0 0,-96.190686 -30.1377,0 0,96.190686 z M 539.66034,19.222803 c 0,-4.748936 1.70909,-8.806968 5.12394,-12.1724466 3.41485,-3.3638298 7.53443,-5.0457447 12.35539,-5.0457447 4.8243,0 8.94053,1.6819149 12.35705,5.0457447 3.41653,3.3654786 5.12395,7.4235106 5.12395,12.1724466 0,4.750585 -1.70742,8.806968 -5.12395,12.172447 -3.41652,3.36383 -7.53275,5.047394 -12.35705,5.047394 -4.82096,0 -8.94054,-1.683564 -12.35539,-5.047394 -3.41485,-3.365479 -5.12394,-7.421862 -5.12394,-12.172447 l 0,0 z"
         id="Fill-17"
         inkscape:connector-curvature="0"
         style="fill:#ffffff" />
      <path
         d="m 505.83644,87.246532 c -1.47642,-2.107341 -3.55044,-3.856862 -6.23042,-5.243617 -2.67999,-1.386755 -5.5575,-2.079309 -8.63756,-2.079309 -7.63653,0 -13.56397,2.244203 -17.78231,6.730958 -4.22002,4.486755 -6.33086,10.358617 -6.33086,17.613936 0,7.25862 2.11084,13.13213 6.33086,17.61394 4.21834,4.4884 10.14578,6.73095 17.78231,6.73095 3.34455,0 6.22875,-0.72388 8.63756,-2.17659 2.41215,-1.45272 4.48617,-3.16761 6.23042,-5.14633 l 19.89149,20.58367 c -4.69207,4.74893 -10.21609,8.08308 -16.57708,9.9942 -6.36266,1.91112 -12.42569,2.8708 -18.18239,2.8708 -7.50596,0 -14.56834,-1.18724 -21.19883,-3.56335 -6.6305,-2.37612 -12.39054,-5.77128 -17.28013,-10.19373 -4.8896,-4.4175 -8.73967,-9.72872 -11.55189,-15.93202 -2.81391,-6.2 -4.21835,-13.12718 -4.21835,-20.78154 0,-7.649415 1.40444,-14.578245 4.21835,-20.781543 2.81222,-6.2 6.66229,-11.509574 11.55189,-15.932021 4.88959,-4.420798 10.64963,-7.817606 17.28013,-10.193723 6.63049,-2.376117 13.69287,-3.561702 21.19883,-3.561702 5.7567,0 11.81973,0.958032 18.18239,2.869149 6.36099,1.912766 11.88501,5.245265 16.57708,9.994202 l -19.89149,20.58367 z"
         id="Fill-14"
         inkscape:connector-curvature="0"
         style="fill:#ffffff" />
      <path
         d="m 421.78467,152.36335 -28.93079,0 0,-13.06122 -0.40342,0 c -1.073,1.84845 -2.44396,3.69361 -4.11958,5.54042 -1.67562,1.85011 -3.71616,3.4974 -6.12664,4.94681 -2.41215,1.45436 -5.15909,2.63995 -8.23915,3.56335 -3.08174,0.92176 -6.42962,1.38676 -10.04535,1.38676 -7.63486,0 -13.83347,-1.15756 -18.5858,-3.46277 -4.75568,-2.30851 -8.43836,-5.51074 -11.05139,-9.60175 -2.60968,-4.08937 -4.35393,-8.90591 -5.22438,-14.44798 -0.87045,-5.54208 -1.304,-11.5442 -1.304,-18.01133 l 0,-53.04298 30.13937,0 0,47.10681 c 0,2.77021 0.0988,5.63936 0.29964,8.60745 0.20255,2.96973 0.80349,5.71191 1.80786,8.215 1.00437,2.50968 2.54272,4.55436 4.62176,6.13569 2.07569,1.58297 5.05364,2.37611 8.94222,2.37611 3.88187,0 7.03056,-0.6942 9.44272,-2.07931 2.41215,-1.3851 4.25014,-3.23191 5.52401,-5.54042 1.2722,-2.30851 2.11085,-4.91548 2.5126,-7.81761 0.40174,-2.90048 0.60262,-5.93947 0.60262,-9.10707 l 0,-47.89665 30.1377,0 0,96.19069 z"
         id="Fill-11"
         inkscape:connector-curvature="0"
         style="fill:#ffffff" />
      <polygon
         id="Fill-9"
         points="224.88341,2.3413245 256.22802,2.3413245 256.22802,123.86297 314.29549,123.86297 314.29549,152.36319 224.88341,152.36319 "
         style="fill:#ffffff" />
      <path
         d="m 41.337953,72.27964 c 0.39486,1.533122 0.605585,3.102641 0.633685,4.674232 l 0.0084,-0.01484 c 0.0318,9.403883 3.152038,18.76984 10.42198,25.931168 7.341921,7.22399 16.972125,11.04623 27.104512,11.3117 5.222708,0.0148 10.442067,1.98532 14.426056,5.90979 8.003124,7.88192 8.003124,20.65293 0,28.53979 -7.999782,7.8951 -20.967832,7.8951 -28.970961,0 -4.092795,-4.0366 -6.081441,-9.35771 -5.991048,-14.63926 C 58.500167,124.25361 54.635029,114.77387 47.411958,107.6719 40.095146,100.45121 30.746164,97.451798 21.151113,97.451798 l 0.01538,-0.0061 C 15.700647,97.621677 10.176091,95.656461 5.9995851,91.55009 1.7475483,87.35632 -0.24444972,81.783647 0.02359117,76.297156 0.25984238,71.461363 2.2518404,66.69252 5.9995851,62.993814 c 3.9237264,-3.850266 9.0275839,-5.815798 14.1682679,-5.89 9.578311,-0.01154 18.927293,-3.00766 26.244105,-10.223404 7.223071,-7.110213 11.088209,-16.588298 11.558588,-26.325266 -0.09039,-5.284841 1.898253,-10.601011 5.991048,-14.6425536 8.003129,-7.8835638 20.971179,-7.8835638 28.970961,0 8.003125,7.8901596 8.003125,20.6578726 0,28.5397876 -3.983989,3.932712 -9.203348,5.898244 -14.426056,5.906489 -10.132387,0.272074 -19.762591,4.091011 -27.104512,11.315 C 45.509551,57.48228 42.343238,64.73251 41.337953,72.27964 z M 151.8954,120.09136 c -8.00648,-7.87862 -20.97955,-7.87862 -28.981,0 -8.0115,7.87862 -8.0115,20.65458 0,28.54144 8.00145,7.89345 20.97787,7.89345 28.981,0 7.99811,-7.88686 7.99811,-20.65787 0,-28.54144 z m 0,-85.638323 c -8.00648,7.883564 -20.97955,7.883564 -28.981,0 -8.0115,-7.878617 -8.0115,-20.649627 0,-28.5414359 8.00145,-7.8819149 20.97787,-7.8819149 28.981,0 7.99811,7.8918089 7.99811,20.6578719 0,28.5414359 z"
         id="Combined-Shape"
         inkscape:connector-curvature="0"
         style="fill:#f88d1e" />
    </g>
  </g>
</svg>
