<?xml version="1.0" encoding="UTF-8" standalone="no"?>
<svg width="1412px" height="155px" viewBox="0 0 1412 155" version="1.1" xmlns="http://www.w3.org/2000/svg" xmlns:xlink="http://www.w3.org/1999/xlink">
    <!-- Generator: Sketch 3.8.3 (29802) - http://www.bohemiancoding.com/sketch -->
    <title>lucid-logo-light</title>
    <desc>Created with Sketch.</desc>
    <defs></defs>
    <g id="Page-1" stroke="none" stroke-width="1" fill="none" fill-rule="evenodd">
        <g id="lucid-logo-light" transform="translate(-1.000000, 0.000000)">
            <g id="Layer_1">
                <g id="Group">
                    <g transform="translate(218.686679, 1.000000)" id="Shape" fill="#FFFFFF">
                        <polygon points="0.979194086 2.26315789 31.4974098 2.26315789 31.4974098 122.510526 88.1274677 122.510526 88.1274677 150.736842 0.979194086 150.736842"></polygon>
                        <path d="M192.901235,150.736842 L164.667805,150.736842 L164.667805,137.847368 L164.341407,137.847368 C163.362213,139.642105 161.893422,141.436842 160.261432,143.394737 C158.629442,145.189474 156.671054,146.821053 154.223069,148.289474 C151.938282,149.757895 149.163899,150.9 146.226317,151.878947 C143.288735,152.857895 140.024754,153.184211 136.434376,153.184211 C128.927221,153.184211 122.888858,152.042105 118.319285,149.757895 C113.749713,147.473684 110.159335,144.373684 107.54815,140.294737 C104.936966,136.215789 103.304976,131.484211 102.488981,125.936842 C101.672986,120.389474 101.183389,114.515789 101.183389,108.152632 L101.183389,55.6157895 L130.559211,55.6157895 L130.559211,102.278947 C130.559211,105.052632 130.72241,107.826316 130.885609,110.763158 C131.048808,113.7 131.701605,116.473684 132.680799,118.921053 C133.659993,121.368421 135.128784,123.489474 137.250371,124.957895 C139.208759,126.589474 142.146341,127.242105 145.899919,127.242105 C149.653496,127.242105 152.754277,126.589474 155.039064,125.121053 C157.32385,123.815789 159.119039,121.857895 160.424631,119.573684 C161.730223,117.289474 162.546218,114.678947 162.872616,111.905263 C163.199014,108.968421 163.525412,106.031579 163.525412,102.931579 L163.525412,55.6157895 L192.901235,55.6157895 L192.901235,150.736842 L192.901235,150.736842 Z"></path>
                        <path d="M274.82714,86.2894737 C273.358349,84.1684211 271.399961,82.5368421 268.788777,81.0684211 C266.177592,79.7631579 263.403209,78.9473684 260.302428,78.9473684 C252.795273,78.9473684 247.083308,81.2315789 243.003332,85.6368421 C238.923357,90.0421053 236.80177,95.9157895 236.80177,103.094737 C236.80177,110.273684 238.923357,116.147368 243.003332,120.552632 C247.083308,124.957895 252.958472,127.242105 260.302428,127.242105 C263.566408,127.242105 266.340791,126.589474 268.788777,125.121053 C271.073563,123.652632 273.19515,122.021053 274.82714,120.063158 L294.247823,140.457895 C289.67825,145.189474 284.292683,148.452632 278.09112,150.410526 C271.889558,152.368421 266.014393,153.184211 260.302428,153.184211 C252.958472,153.184211 246.104114,152.042105 239.576153,149.594737 C233.048192,147.310526 227.499426,143.884211 222.766655,139.478947 C218.033883,135.073684 214.280306,129.852632 211.505923,123.652632 C208.731539,117.452632 207.425947,110.6 207.425947,103.094737 C207.425947,95.5894737 208.731539,88.7368421 211.505923,82.5368421 C214.280306,76.3368421 218.033883,71.1157895 222.766655,66.7105263 C227.499426,62.3052632 233.211391,59.0421053 239.576153,56.5947368 C246.104114,54.3105263 252.958472,53.0052632 260.302428,53.0052632 C265.851194,53.0052632 271.889558,53.9842105 278.09112,55.7789474 C284.292683,57.7368421 289.67825,61 294.247823,65.7315789 L274.82714,86.2894737 L274.82714,86.2894737 Z"></path>
                        <path d="M307.793341,18.9052632 C307.793341,14.1736842 309.425331,10.2578947 312.85251,6.83157895 C316.116491,3.56842105 320.196466,1.77368421 324.929237,1.77368421 C329.662009,1.77368421 333.578785,3.40526316 337.005965,6.83157895 C340.269945,10.0947368 342.065134,14.1736842 342.065134,18.9052632 C342.065134,23.6368421 340.433144,27.5526316 337.005965,30.9789474 C333.741984,34.2421053 329.662009,36.0368421 324.929237,36.0368421 C320.196466,36.0368421 316.27969,34.4052632 312.85251,30.9789474 C309.425331,27.7157895 307.793341,23.6368421 307.793341,18.9052632 L307.793341,18.9052632 Z M310.078127,55.6157895 L339.45395,55.6157895 L339.45395,150.736842 L310.078127,150.736842 L310.078127,55.6157895 L310.078127,55.6157895 Z"></path>
                        <path d="M458.915628,150.736842 L431.824592,150.736842 L431.824592,138.173684 L431.498194,138.173684 C430.355801,139.805263 428.723811,141.6 426.928621,143.394737 C424.970233,145.189474 422.848646,146.821053 420.237462,148.126316 C417.626278,149.594737 414.851894,150.736842 411.751113,151.715789 C408.650332,152.694737 405.549551,153.021053 402.28557,153.021053 C395.268013,153.021053 388.903251,151.878947 383.028087,149.431579 C377.316121,146.984211 372.420151,143.557895 368.176976,139.315789 C364.097001,134.910526 360.833021,129.689474 358.711433,123.815789 C356.426647,117.778947 355.447453,111.252632 355.447453,104.073684 C355.447453,97.3842105 356.426647,91.0210526 358.548234,84.9842105 C360.506623,78.9473684 363.444205,73.5631579 367.197782,68.8315789 C370.95136,64.1 375.520932,60.3473684 380.7433,57.5736842 C386.128868,54.8 392.167231,53.3315789 399.02159,53.3315789 C405.223153,53.3315789 410.935118,54.3105263 416.157486,56.1052632 C421.379855,58.0631579 425.786228,61.1631579 429.213408,65.7315789 L429.539806,65.7315789 L429.539806,2.1 L458.915628,2.1 L458.915628,150.736842 L458.915628,150.736842 Z M428.560612,103.094737 C428.560612,95.9157895 426.439024,90.0421053 422.359049,85.6368421 C418.279074,81.2315789 412.403909,78.9473684 405.059954,78.9473684 C397.552799,78.9473684 391.840833,81.2315789 387.760858,85.6368421 C383.680883,90.0421053 381.559295,95.9157895 381.559295,103.094737 C381.559295,110.273684 383.680883,116.147368 387.760858,120.552632 C391.840833,124.957895 397.715998,127.242105 405.059954,127.242105 C412.567108,127.242105 418.279074,124.957895 422.359049,120.552632 C426.602223,116.147368 428.560612,110.273684 428.560612,103.094737 L428.560612,103.094737 Z"></path>
                        <path d="M490.08664,126.589474 C493.024222,130.342105 496.451402,133.442105 500.04178,135.563158 C503.632158,137.847368 508.201731,138.826316 513.587298,138.826316 C515.872084,138.826316 518.320069,138.5 520.768055,138.010526 C523.21604,137.521053 525.337627,136.705263 527.296015,135.4 C529.254403,134.257895 530.886394,132.789474 532.028787,130.994737 C533.17118,129.2 533.823976,127.078947 533.823976,124.631579 C533.823976,122.184211 533.334379,120.063158 532.191986,118.594737 C531.049593,116.963158 529.580801,115.657895 527.785612,114.515789 C525.990423,113.373684 523.868836,112.557895 521.58405,111.905263 C519.299264,111.252632 516.851278,110.6 514.403293,110.110526 C510.160119,109.131579 505.916944,108.152632 502.000168,107.010526 C498.083392,105.868421 494.656212,104.236842 491.71863,102.442105 C488.781048,100.484211 486.496262,98.0368421 484.701072,95.1 C482.905883,92.1631579 482.089888,88.2473684 482.089888,83.5157895 C482.089888,79.1105263 483.069082,75.1947368 485.027471,71.7684211 C486.985859,68.3421053 489.597043,65.5684211 492.861023,63.2842105 C496.125004,61 499.715382,59.3684211 503.795357,58.2263158 C507.875333,57.0842105 511.955308,56.4315789 516.361681,56.4315789 C522.889642,56.4315789 528.928005,57.7368421 534.476772,60.3473684 C540.025538,62.9578947 544.431912,67.2 547.532693,73.0736842 L534.80317,81.5578947 C532.844782,78.2947368 530.233597,75.6842105 527.132816,73.5631579 C523.868836,71.6052632 520.115259,70.4631579 515.545686,70.4631579 C513.424099,70.4631579 511.302512,70.7894737 509.180925,71.2789474 C507.059337,71.7684211 505.100949,72.5842105 503.468959,73.5631579 C501.836969,74.5421053 500.368178,76.0105263 499.225785,77.6421053 C498.083392,79.2736842 497.593795,81.0684211 497.593795,83.1894737 C497.593795,85.1473684 498.246591,86.7789474 499.388984,88.2473684 C500.694576,89.5526316 502.326566,90.8578947 504.448153,91.8368421 C506.56974,92.8157895 509.017726,93.7947368 511.955308,94.6105263 C514.729691,95.4263158 517.667273,96.0789474 520.604856,96.5684211 C524.684831,97.3842105 528.438408,98.3631579 532.191986,99.6684211 C535.782364,100.973684 539.046344,102.605263 541.820728,104.726316 C544.595111,106.847368 546.716698,109.457895 548.348688,112.557895 C549.980678,115.657895 550.633474,119.573684 550.633474,124.142105 C550.633474,129.363158 549.65428,133.768421 547.532693,137.521053 C545.411106,141.110526 542.636723,144.210526 539.209543,146.494737 C535.782364,148.778947 531.865588,150.410526 527.459214,151.552632 C523.052841,152.531579 518.646467,153.184211 514.076895,153.184211 C506.243342,153.184211 499.552183,152.042105 493.840217,149.594737 C488.128252,147.147368 483.069082,142.742105 478.49951,136.215789 L490.08664,126.589474 L490.08664,126.589474 Z"></path>
                        <path d="M561.404609,104.889474 C561.404609,97.7105263 562.710201,91.1842105 565.158187,85.3105263 C567.606172,79.4368421 571.033351,74.3789474 575.276525,70.1368421 C579.5197,65.8947368 584.742068,62.6315789 590.780432,60.1842105 C596.818795,57.9 603.346756,56.5947368 610.364314,56.5947368 C617.381871,56.5947368 623.909832,57.7368421 629.948195,60.1842105 C635.986559,62.4684211 641.045728,65.8947368 645.452102,70.1368421 C649.695276,74.3789474 653.122455,79.4368421 655.57044,85.3105263 C658.018426,91.1842105 659.324018,97.7105263 659.324018,104.889474 C659.324018,112.068421 658.018426,118.594737 655.57044,124.468421 C653.122455,130.342105 649.695276,135.4 645.452102,139.642105 C641.208927,143.884211 635.986559,147.147368 629.948195,149.594737 C623.909832,151.878947 617.381871,153.184211 610.364314,153.184211 C603.346756,153.184211 596.818795,152.042105 590.780432,149.594737 C584.742068,147.310526 579.682899,143.884211 575.276525,139.642105 C571.033351,135.4 567.606172,130.342105 565.158187,124.468421 C562.710201,118.594737 561.404609,112.068421 561.404609,104.889474 L561.404609,104.889474 Z M577.88771,104.889474 C577.88771,109.784211 578.703705,114.189474 580.172496,118.268421 C581.641287,122.347368 583.926073,125.936842 586.700456,129.036842 C589.638039,132.136842 593.065218,134.584211 596.981994,136.215789 C600.898771,138.010526 605.468343,138.826316 610.364314,138.826316 C615.260284,138.826316 619.829856,138.010526 623.746633,136.215789 C627.663409,134.421053 631.090588,131.973684 634.028171,129.036842 C636.965753,125.936842 639.08734,122.347368 640.556131,118.268421 C642.024922,114.189474 642.840917,109.621053 642.840917,104.889474 C642.840917,99.9947368 642.024922,95.5894737 640.556131,91.5105263 C639.08734,87.4315789 636.802554,83.8421053 634.028171,80.7421053 C631.090588,77.6421053 627.663409,75.1947368 623.746633,73.5631579 C619.829856,71.7684211 615.260284,70.9526316 610.364314,70.9526316 C605.468343,70.9526316 600.898771,71.7684211 596.981994,73.5631579 C593.065218,75.3578947 589.638039,77.8052632 586.700456,80.7421053 C583.762874,83.8421053 581.641287,87.4315789 580.172496,91.5105263 C578.703705,95.5894737 577.88771,99.9947368 577.88771,104.889474 L577.88771,104.889474 Z"></path>
                        <path d="M687.720646,71.9315789 L667.810367,71.9315789 L667.810367,59.0421053 L687.720646,59.0421053 L687.720646,38.4842105 C687.720646,32.9368421 688.210243,27.7157895 689.352636,23.1473684 C690.331831,18.5789474 692.12702,14.5 694.738204,11.0736842 C697.349388,7.64736842 700.613368,5.03684211 704.856543,3.07894737 C709.099717,1.12105263 714.158887,0.305263158 720.360449,0.305263158 C722.318837,0.305263158 724.440425,0.468421053 726.562012,0.957894737 C728.846798,1.28421053 730.641987,1.93684211 732.110778,2.75263158 L729.989191,16.4578947 C726.398813,15.1526316 722.808434,14.5 719.544454,14.5 C715.627678,14.5 712.526896,15.1526316 710.405309,16.6210526 C708.120523,17.9263158 706.488533,19.8842105 705.34614,22.3315789 C704.203747,24.7789474 703.550951,27.7157895 703.387752,30.9789474 C703.224553,34.4052632 703.061354,37.9947368 703.061354,41.9105263 L703.061354,59.2052632 L725.419619,59.2052632 L725.419619,72.0947368 L703.061354,72.0947368 L703.061354,150.736842 L687.720646,150.736842 L687.720646,71.9315789 L687.720646,71.9315789 Z"></path>
                        <path d="M786.942399,71.9315789 L759.851362,71.9315789 L759.851362,117.778947 C759.851362,120.715789 759.851362,123.489474 760.014561,126.1 C760.17776,128.710526 760.667357,130.831579 761.646551,132.789474 C762.625746,134.747368 763.931338,136.215789 765.726527,137.357895 C767.521716,138.5 770.1329,138.989474 773.56008,138.989474 C775.844866,138.989474 778.129652,138.663158 780.414438,138.173684 C782.699224,137.684211 784.984011,136.868421 787.105598,135.889474 L787.758394,149.757895 C785.14721,150.9 782.209627,151.715789 779.108846,152.368421 C775.844866,152.857895 772.907283,153.184211 769.969701,153.184211 C764.420935,153.184211 760.17776,152.531579 756.91378,151.063158 C753.6498,149.594737 751.038616,147.636842 749.243426,145.026316 C747.448237,142.415789 746.142645,139.152632 745.653048,135.4 C745.000252,131.484211 744.837053,127.242105 744.837053,122.510526 L744.837053,71.9315789 L724.926773,71.9315789 L724.926773,59.0421053 L744.837053,59.0421053 L744.837053,32.9368421 L760.17776,32.9368421 L760.17776,59.0421053 L787.268797,59.0421053 L787.268797,71.9315789 L786.942399,71.9315789 Z"></path>
                        <polygon points="904.119291 150.736842 889.104982 150.736842 862.993139 80.2526316 862.666741 80.2526316 839.492481 150.736842 823.825376 150.736842 794.123155 59.0421053 810.932654 59.0421053 831.822128 129.526316 832.148526 129.526316 855.812383 59.0421053 871.805886 59.0421053 895.95934 129.526316 896.285738 129.526316 917.012013 59.0421053 933.658313 59.0421053"></polygon>
                        <path d="M946.387836,70.7894737 C951.120607,65.8947368 956.669374,62.4684211 963.197334,60.1842105 C969.725295,57.9 976.253255,56.7578947 982.944415,56.7578947 C996.489933,56.7578947 1006.28187,60.0210526 1012.32024,66.3842105 C1018.3586,72.7473684 1021.29618,82.5368421 1021.29618,95.5894737 L1021.29618,134.910526 C1021.29618,137.521053 1021.45938,140.294737 1021.62258,143.068421 C1021.94898,145.842105 1022.27538,148.452632 1022.60178,150.736842 L1007.91386,150.736842 C1007.42427,148.615789 1007.09787,146.331579 1007.09787,143.721053 C1007.09787,141.110526 1006.93467,138.989474 1006.93467,137.031579 L1006.60827,137.031579 C1003.67069,141.763158 999.590714,145.515789 994.531545,148.615789 C989.472375,151.552632 983.434012,153.184211 976.416454,153.184211 C971.683683,153.184211 967.27731,152.531579 963.197334,151.389474 C959.117359,150.247368 955.52698,148.452632 952.426199,146.168421 C949.325418,143.884211 946.877433,141.110526 945.082244,137.684211 C943.287054,134.257895 942.30786,130.342105 942.30786,125.936842 C942.30786,118.431579 944.266248,112.394737 948.183025,108.152632 C952.099801,103.910526 956.995772,100.647368 962.707737,98.5263158 C968.582902,96.4052632 974.784464,95.1 981.475624,94.6105263 C988.166783,94.1210526 994.368346,93.7947368 999.917112,93.7947368 L1005.79228,93.7947368 L1005.79228,91.0210526 C1005.79228,84.3315789 1003.83389,79.2736842 999.753913,76.0105263 C995.837137,72.5842105 990.125172,70.9526316 982.944415,70.9526316 C978.048444,70.9526316 973.152474,71.7684211 968.419703,73.4 C963.686931,75.0315789 959.443757,77.4789474 955.853379,80.9052632 L946.387836,70.7894737 L946.387836,70.7894737 Z M990.777968,106.684211 C980.986027,106.684211 973.152474,107.989474 967.440509,110.763158 C961.728543,113.536842 958.790961,117.942105 958.790961,124.305263 C958.790961,130.015789 960.749349,134.094737 964.502926,136.542105 C968.419703,138.989474 973.152474,140.131579 978.86444,140.131579 C983.270813,140.131579 987.187589,139.315789 990.45157,137.847368 C993.71555,136.378947 996.489933,134.421053 998.774719,131.810526 C1001.05951,129.363158 1002.6915,126.426316 1003.83389,123.163158 C1004.97628,119.9 1005.62908,113.373684 1005.79228,109.621053 L1005.79228,106.684211 L990.777968,106.684211 L990.777968,106.684211 Z"></path>
                        <path d="M1042.18566,59.0421053 L1057.68956,59.0421053 L1057.68956,70.3 C1058.66876,68.0157895 1061.93274,61.1631579 1074.49906,58.0631579 C1081.02702,56.4315789 1084.291,56.5947368 1085.92299,56.5947368 C1087.06539,56.5947368 1089.67657,56.7578947 1090.81896,56.9210526 C1091.79816,57.0842105 1092.94055,57.2473684 1093.91974,57.7368421 L1092.94055,73.2368421 C1090.32937,72.4210526 1087.55498,72.0947368 1084.7806,72.0947368 C1075.31506,72.0947368 1068.6239,75.1947368 1064.38072,81.2315789 C1060.13755,87.2684211 1058.01596,95.5894737 1058.01596,106.194737 L1058.01596,150.736842 L1042.51206,150.736842 C1042.18566,150.736842 1042.18566,62.1421053 1042.18566,59.0421053 L1042.18566,59.0421053 Z"></path>
                        <path d="M1190.04396,134.094737 C1184.4952,141.110526 1178.62003,146.005263 1172.09207,148.942105 C1165.56411,151.715789 1158.05696,153.184211 1149.40741,153.184211 C1142.22665,153.184211 1135.69869,151.878947 1129.98673,149.431579 C1124.27476,146.821053 1119.37879,143.394737 1115.46201,139.152632 C1111.54524,134.910526 1108.44446,129.689474 1106.32287,123.815789 C1104.20128,117.942105 1103.05889,111.742105 1103.05889,105.052632 C1103.05889,98.0368421 1104.20128,91.5105263 1106.64927,85.6368421 C1108.93405,79.7631579 1112.19803,74.5421053 1116.44121,70.3 C1120.68438,66.0578947 1125.58035,62.7947368 1131.29232,60.3473684 C1137.00428,58.0631579 1143.36905,56.7578947 1150.06021,56.7578947 C1156.42497,56.7578947 1162.30013,57.9 1167.6857,60.0210526 C1173.07127,62.1421053 1177.64084,65.2421053 1181.55762,69.4842105 C1185.47439,73.5631579 1188.41197,78.6210526 1190.53356,84.4947368 C1192.65515,90.3684211 1193.63434,97.2210526 1193.63434,104.726316 L1193.63434,109.621053 L1119.54199,109.621053 C1119.86839,113.536842 1120.68438,117.289474 1122.31637,120.878947 C1123.94836,124.468421 1126.06995,127.568421 1128.68113,130.342105 C1131.29232,132.952632 1134.3931,135.073684 1137.82028,136.705263 C1141.41066,138.336842 1145.16424,138.989474 1149.40741,138.989474 C1156.09857,138.989474 1161.64734,137.847368 1166.21691,135.4 C1170.78648,133.115789 1174.86646,129.526316 1178.62003,124.957895 L1190.04396,134.094737 L1190.04396,134.094737 Z M1176.98804,96.7315789 C1176.66164,88.9 1174.21366,82.7 1169.31769,77.9684211 C1164.42172,73.2368421 1157.89376,70.9526316 1149.40741,70.9526316 C1140.92106,70.9526316 1134.0667,73.2368421 1128.84433,77.9684211 C1123.62197,82.7 1120.52118,88.9 1119.37879,96.7315789 L1176.98804,96.7315789 L1176.98804,96.7315789 Z"></path>
                    </g>
                    <g id="Shape" fill="#29AAE1">
                        <path d="M77.8459298,114.047368 L77.8459298,114.047368 C67.89079,113.721053 58.5884461,109.968421 51.4076895,102.789474 C44.3901319,95.7736842 41.2893506,86.4736842 41.2893506,77.1736842 L41.2893506,77.1736842 C41.1261516,72.1157895 39.3309624,67.2210526 35.4141861,63.3052632 C27.5806334,55.4736842 15.0143093,55.4736842 7.18075663,63.3052632 C-0.652796057,71.1368421 -0.652796057,83.7 7.18075663,91.5315789 C10.934334,95.2842105 15.9935034,97.2421053 21.0526728,97.4052632 L21.0526728,97.4052632 C30.3550167,97.4052632 39.4941615,100.342105 46.6749181,107.521053 C53.6924757,114.536842 57.446053,124 57.9356501,133.626316 C57.7724511,138.847368 59.7308392,144.068421 63.8108146,148.147368 C71.6443673,155.978947 84.2106914,155.978947 92.0442441,148.147368 C99.8777968,140.315789 99.8777968,127.752632 92.0442441,119.921053 C88.1274677,116.005263 83.0682983,114.047368 77.8459298,114.047368 L77.8459298,114.047368 Z"></path>
                        <path d="M148.511103,119.921053 C140.67755,112.089474 128.111226,112.089474 120.277674,119.921053 C112.444121,127.752632 112.444121,140.315789 120.277674,148.147368 C128.111226,155.978947 140.67755,155.978947 148.511103,148.147368 C156.344656,140.315789 156.344656,127.589474 148.511103,119.921053 L148.511103,119.921053 Z"></path>
                        <path d="M35.5773851,35.0789474 C27.7438324,42.9105263 15.1775083,42.9105263 7.34395564,35.0789474 C-0.489597043,27.2473684 -0.489597043,14.6842105 7.34395564,6.85263158 C15.1775083,-0.978947368 27.7438324,-0.978947368 35.5773851,6.85263158 C43.2477388,14.6842105 43.2477388,27.4105263 35.5773851,35.0789474 L35.5773851,35.0789474 Z"></path>
                        <path d="M35.5773851,148.147368 C27.7438324,155.978947 15.1775083,155.978947 7.34395564,148.147368 C-0.489597043,140.315789 -0.489597043,127.752632 7.34395564,119.921053 C15.1775083,112.089474 27.7438324,112.089474 35.5773851,119.921053 C43.2477388,127.752632 43.2477388,140.315789 35.5773851,148.147368 L35.5773851,148.147368 Z"></path>
                    </g>
                </g>
            </g>
        </g>
    </g>
</svg>