<?xml version="1.0" encoding="UTF-8" standalone="no"?>
<svg width="1115px" height="194px" viewBox="0 0 1115 194" version="1.1" xmlns="http://www.w3.org/2000/svg" xmlns:xlink="http://www.w3.org/1999/xlink">
    <!-- Generator: Sketch 3.8.3 (29802) - http://www.bohemiancoding.com/sketch -->
    <title>press-logo-light</title>
    <desc>Created with Sketch.</desc>
    <defs></defs>
    <g id="Page-1" stroke="none" stroke-width="1" fill="none" fill-rule="evenodd">
        <g id="press-logo-light">
            <path d="M1055.28218,126.122273 C1058.22499,129.859504 1061.46143,132.82157 1064.9851,135.011694 C1068.50877,137.201818 1072.96149,138.29124 1078.33845,138.29124 C1080.64585,138.29124 1082.98052,138.036612 1085.35691,137.520909 C1087.71885,137.010041 1089.869,136.16719 1091.79129,135.011694 C1093.71198,133.849752 1095.24917,132.402562 1096.40287,130.660455 C1097.55656,128.924793 1098.131,126.834587 1098.131,124.386612 C1098.131,121.940248 1097.58384,119.941901 1096.49593,118.394793 C1095.40963,116.850909 1093.96871,115.531033 1092.17639,114.435165 C1090.37926,113.342521 1088.33181,112.473884 1086.02762,111.829256 C1083.72023,111.184628 1081.34705,110.607686 1078.9161,110.087149 C1074.68802,109.189504 1070.6557,108.158099 1066.81112,106.997769 C1062.96814,105.840661 1059.60332,104.324174 1056.72309,102.459587 C1053.84287,100.593388 1051.53547,98.1792562 1049.80894,95.2139669 C1048.07759,92.255124 1047.21272,88.4518182 1047.21272,83.8153306 C1047.21272,79.4383058 1048.17387,75.5753719 1050.09295,72.2265289 C1052.01524,68.877686 1054.58097,66.1106198 1057.78052,63.9188843 C1060.98166,61.7303719 1064.56951,60.0543388 1068.54246,58.8956198 C1072.5106,57.7369008 1076.61192,57.1567355 1080.8384,57.1567355 C1087.24229,57.1567355 1093.16642,58.4476033 1098.61398,61.0228926 C1104.05352,63.5981818 1108.31209,67.7850413 1111.38968,73.5770248 L1098.9012,81.8846694 C1096.97731,78.6679752 1094.44688,76.058843 1091.30831,74.0621074 C1088.17135,72.0669835 1084.35885,71.0678099 1079.87885,71.0678099 C1077.82819,71.0678099 1075.74865,71.3256612 1073.63381,71.8413636 C1071.51897,72.3554545 1069.63037,73.1257851 1067.96481,74.1604132 C1066.29765,75.1902066 1064.91931,76.5084711 1063.8314,78.1152066 C1062.7435,79.73 1062.20115,81.5639669 1062.20115,83.6251653 C1062.20115,85.5558264 1062.80928,87.196405 1064.02556,88.550124 C1065.24023,89.8990083 1066.909,91.0931818 1069.02223,92.1229752 C1071.13387,93.1543802 1073.56481,94.0552479 1076.3247,94.8271901 C1079.07656,95.6007438 1081.9263,96.2469835 1084.87713,96.7594628 C1088.84206,97.5297934 1092.62407,98.5289669 1096.21032,99.7569835 C1099.79335,100.980165 1102.93513,102.620744 1105.62281,104.680331 C1108.31209,106.741529 1110.43014,109.316818 1111.96734,112.40781 C1113.50453,115.49719 1114.26831,119.297273 1114.26831,123.804835 C1114.26831,128.957025 1113.24458,133.337273 1111.19713,136.942355 C1109.14487,140.54905 1106.4235,143.478884 1103.0314,145.730248 C1099.6361,147.986446 1095.79152,149.628636 1091.50246,150.656818 C1087.2086,151.688223 1082.82166,152.202314 1078.33845,152.202314 C1070.6557,152.202314 1064.02556,151.00814 1058.45284,148.631074 C1052.87851,146.244339 1047.85616,141.836694 1043.36974,135.39686 L1055.28218,126.122273" id="Fill-5" fill="#FFFFFF"></path>
            <path d="M973.430716,126.122273 C976.373524,129.859504 979.609971,132.82157 983.133639,135.011694 C986.657307,137.201818 991.105215,138.29124 996.486991,138.29124 C998.794384,138.29124 1001.12905,138.036612 1003.49903,137.520909 C1005.86739,137.010041 1008.01593,136.16719 1009.93983,135.011694 C1011.86212,133.849752 1013.39771,132.402562 1014.5514,130.660455 C1015.70189,128.924793 1016.27954,126.834587 1016.27954,124.386612 C1016.27954,121.940248 1015.73238,119.941901 1014.64447,118.394793 C1013.55656,116.850909 1012.11564,115.531033 1010.32011,114.435165 C1008.52779,113.342521 1006.47874,112.473884 1004.17456,111.829256 C1001.86877,111.184628 999.493983,110.607686 997.063037,110.087149 C992.836562,109.189504 988.804241,108.158099 984.959656,106.997769 C981.115072,105.840661 977.751862,104.324174 974.871633,102.459587 C971.989799,100.593388 969.684011,98.1792562 967.952665,95.2139669 C966.226132,92.255124 965.362865,88.4518182 965.362865,83.8153306 C965.362865,79.4383058 966.322407,75.5753719 968.24149,72.2265289 C970.162178,68.877686 972.726304,66.1106198 975.929054,63.9188843 C979.128596,61.7303719 982.718052,60.0543388 986.687794,58.8956198 C990.660745,57.7369008 994.758854,57.1567355 998.986934,57.1567355 C1005.39244,57.1567355 1011.31175,58.4476033 1016.75931,61.0228926 C1022.19885,63.5981818 1026.46223,67.7850413 1029.53822,73.5770248 L1017.04493,81.8846694 C1015.12585,78.6679752 1012.59221,76.058843 1009.45685,74.0621074 C1006.31668,72.0669835 1002.5106,71.0678099 998.027393,71.0678099 C995.97192,71.0678099 993.892378,71.3256612 991.78235,71.8413636 C989.667507,72.3554545 987.774097,73.1257851 986.113352,74.1604132 C984.444585,75.1902066 983.067851,76.5084711 981.979943,78.1152066 C980.892034,79.73 980.34808,81.5639669 980.34808,83.6251653 C980.34808,85.5558264 980.953009,87.196405 982.172493,88.550124 C983.388768,89.8990083 985.054327,91.0931818 987.170774,92.1229752 C989.280802,93.1543802 991.711748,94.0552479 994.470029,94.8271901 C997.2251,95.6007438 1000.07163,96.2469835 1003.02086,96.7594628 C1006.99381,97.5297934 1010.7694,98.5289669 1014.35885,99.7569835 C1017.9435,100.980165 1021.08206,102.620744 1023.77456,104.680331 C1026.46223,106.741529 1028.57547,109.316818 1030.11266,112.40781 C1031.64986,115.49719 1032.41685,119.297273 1032.41685,123.804835 C1032.41685,128.957025 1031.39312,133.337273 1029.34246,136.942355 C1027.29341,140.54905 1024.57043,143.478884 1021.17673,145.730248 C1017.78464,147.986446 1013.94006,149.628636 1009.6494,150.656818 C1005.35713,151.688223 1000.9702,152.202314 996.486991,152.202314 C988.804241,152.202314 982.172493,151.00814 976.598166,148.631074 C971.028653,146.244339 965.999885,141.836694 961.516676,135.39686 L973.430716,126.122273" id="Fill-3" fill="#FFFFFF"></path>
            <path d="M944.995874,133.464587 C939.615702,140.418512 933.718854,145.282231 927.318166,148.049298 C920.91106,150.817975 913.481834,152.202314 905.028883,152.202314 C897.981547,152.202314 891.643438,150.946901 886.006533,148.432851 C880.366418,145.925248 875.595989,142.544174 871.688825,138.29124 C867.781662,134.044752 864.771461,129.019876 862.661433,123.224669 C860.54659,117.429463 859.490774,111.245868 859.490774,104.680331 C859.490774,97.7247934 860.639656,91.3188017 862.950258,85.4575207 C865.251232,79.6010744 868.453983,74.5761983 872.556905,70.3909504 C876.65341,66.207314 881.520115,62.9519421 887.160229,60.6345041 C892.793926,58.3154545 898.945903,57.1567355 905.604928,57.1567355 C911.877249,57.1567355 917.644126,58.2187603 922.897536,60.3460331 C928.150946,62.4684711 932.664642,65.5610744 936.440229,69.6173967 C940.219026,73.6769421 943.134556,78.6325207 945.186819,84.4921901 C947.234269,90.3550826 948.264413,97.0189256 948.264413,104.486942 L948.264413,109.316818 L875.62808,109.316818 C875.889628,113.179752 876.812264,116.884752 878.415244,120.42376 C880.016619,123.967603 882.097765,127.058595 884.660287,129.698347 C887.222808,132.339711 890.234613,134.431529 893.692493,135.975413 C897.148768,137.520909 900.924355,138.29124 905.028883,138.29124 C911.564355,138.29124 917.069685,137.132521 921.552894,134.816694 C926.032894,132.496033 930.070029,129.08595 933.659484,124.576777 L944.995874,133.464587 L944.995874,133.464587 Z M932.119083,96.567686 C931.860745,88.8402066 929.362407,82.6566116 924.624069,78.0217355 C919.887335,73.3852479 913.353467,71.0678099 905.028883,71.0678099 C896.699484,71.0678099 889.971461,73.3852479 884.849628,78.0217355 C879.727794,82.6566116 876.65341,88.8402066 875.62808,96.567686 L932.119083,96.567686 L932.119083,96.567686 Z" id="Fill-2" fill="#FFFFFF"></path>
            <path d="M802.470372,59.4628926 L817.713926,59.4628926 L817.720344,70.5827273 C818.745673,68.3909917 821.962865,61.5321488 834.204241,58.5346281 C840.678739,56.9504545 843.838166,57.0503719 845.393009,57.0503719 C846.570774,57.0503719 849.107622,57.2066942 850.13616,57.3356198 C851.163095,57.4645455 852.190029,57.7207851 853.218567,58.107562 L852.255817,73.3900826 C849.686877,72.6165289 846.98957,72.2281405 844.167106,72.2281405 C834.92149,72.2281405 828.211117,75.2272727 824.042407,81.2239256 C819.867278,87.2205785 817.781318,95.4411983 817.781318,105.887397 L817.781318,149.99124 L802.470372,149.99124 L802.470372,59.4628926" id="Fill-10" fill="#FFFFFF"></path>
            <path d="M692.151977,59.4757851 L707.140401,59.4757851 L707.140401,72.6116942 L707.522292,72.6116942 C711.622006,67.7189669 716.392436,63.9188843 721.836791,61.216281 C727.279542,58.5104545 733.272665,57.1567355 739.804928,57.1567355 C746.84745,57.1567355 753.285043,58.3509091 759.112894,60.7311983 C764.940745,63.1163223 769.903725,66.4297107 774.005043,70.6826446 C778.103152,74.9307438 781.309112,79.9507851 783.610086,85.7459917 C785.922292,91.5428099 787.071175,97.8553306 787.071175,104.680331 C787.071175,111.506942 785.922292,117.817851 783.610086,123.613058 C781.309112,129.408264 778.138453,134.431529 774.099713,138.679628 C770.065788,142.93095 765.292149,146.244339 759.786819,148.631074 C754.276676,151.00814 748.381433,152.202314 742.107507,152.202314 C734.039656,152.202314 726.961834,150.431198 720.877249,146.890579 C714.792665,143.349959 710.339943,139.001942 707.522292,133.849752 L707.140401,133.849752 L707.140401,193.930702 L692.151977,193.930702 L692.151977,59.4757851 L692.151977,59.4757851 Z M708.74659,104.680331 C708.74659,109.444132 709.478281,113.856612 710.952894,117.911322 C712.422693,121.970868 714.572837,125.511488 717.392092,128.54124 C720.206533,131.566157 723.571347,133.946446 727.481719,135.685331 C731.384069,137.424215 735.771003,138.29124 740.642521,138.29124 C745.509226,138.29124 749.892951,137.424215 753.804928,135.685331 C757.707278,133.946446 761.068883,131.566157 763.891347,128.54124 C766.708997,125.511488 768.851117,121.970868 770.32894,117.911322 C771.797135,113.856612 772.535244,109.444132 772.535244,104.680331 C772.535244,99.9181405 771.797135,95.502438 770.32894,91.4461157 C768.851117,87.391405 766.708997,83.8507851 763.891347,80.8210331 C761.068883,77.7961157 757.707278,75.4126033 753.804928,73.6769421 C749.892951,71.9348347 745.509226,71.0678099 740.642521,71.0678099 C735.771003,71.0678099 731.384069,71.9348347 727.481719,73.6769421 C723.571347,75.4126033 720.206533,77.7961157 717.392092,80.8210331 C714.572837,83.8507851 712.422693,87.391405 710.952894,91.4461157 C709.478281,95.502438 708.74659,99.9181405 708.74659,104.680331 L708.74659,104.680331 Z" id="Fill-1" fill="#FFFFFF"></path>
            <path d="M665.615358,149.662479 L639.03702,149.662479 L639.03702,137.282397 L638.653524,137.282397 C637.496619,138.961653 635.986705,140.666694 634.126991,142.410413 C632.264069,144.149298 630.081834,145.730248 627.577077,147.146818 C625.07553,148.568223 622.310831,149.726942 619.295817,150.629421 C616.277593,151.530289 613.163095,151.984752 609.95553,151.984752 C603.02212,151.984752 596.72894,150.788967 591.080802,148.405455 C585.429456,146.020331 580.58361,142.669876 576.538453,138.347645 C572.493295,134.027025 569.380401,128.90062 567.198166,122.96843 C565.014327,117.037851 563.923209,110.523884 563.923209,103.431364 C563.923209,96.856157 564.918052,90.5678099 566.909341,84.571157 C568.899026,78.5745041 571.724699,73.2563223 575.384756,68.6117769 C579.043209,63.9704545 583.503954,60.263843 588.770201,57.4903306 C594.033238,54.7200413 600.003897,53.3324793 606.680573,53.3324793 C612.713811,53.3324793 618.333066,54.2688017 623.533524,56.1366116 C628.733983,58.0060331 633.000573,61.2001653 636.341318,65.7109504 L636.726418,65.7109504 L636.726418,2.83553719 L665.615358,2.83553719 L665.615358,149.662479 L665.615358,149.662479 Z M635.824642,102.65781 C635.824642,95.5669008 633.802865,89.8280992 629.759312,85.441405 C625.714155,81.0579339 620.032321,78.8645868 612.713811,78.8645868 C605.393696,78.8645868 599.711862,81.0579339 595.668309,85.441405 C591.623152,89.8280992 589.60298,95.5669008 589.60298,102.65781 C589.60298,109.751942 591.623152,115.492355 595.668309,119.872603 C599.711862,124.259298 605.393696,126.451033 612.713811,126.451033 C620.032321,126.451033 625.714155,124.259298 629.759312,119.872603 C633.802865,115.492355 635.824642,109.751942 635.824642,102.65781 L635.824642,102.65781 Z" id="Fill-9" fill="#FFFFFF"></path>
            <path d="M517.062923,19.5394628 C517.062923,14.8965289 518.701203,10.9320661 521.974556,7.64285124 C525.247908,4.35524793 529.196791,2.71144628 533.817994,2.71144628 C538.442407,2.71144628 542.38808,4.35524793 545.663037,7.64285124 C548.937994,10.9320661 550.57467,14.8965289 550.57467,19.5394628 C550.57467,24.1823967 548.937994,28.1468595 545.663037,31.4360744 C542.38808,34.7236777 538.442407,36.3690909 533.817994,36.3690909 C529.196791,36.3690909 525.247908,34.7236777 521.974556,31.4360744 C518.701203,28.1468595 517.062923,24.1823967 517.062923,19.5394628 L517.062923,19.5394628 Z M519.307736,55.6531405 L548.196676,55.6531405 L548.196676,149.664091 L519.307736,149.664091 L519.307736,55.6531405 Z" id="Fill-8" fill="#FFFFFF"></path>
            <path d="M484.640688,86.0215702 C483.225444,83.9619835 481.237364,82.2521074 478.668424,80.8967769 C476.099484,79.5414463 473.341203,78.8645868 470.388768,78.8645868 C463.068653,78.8645868 457.386819,81.0579339 453.343266,85.441405 C449.298109,89.8280992 447.274728,95.5669008 447.274728,102.65781 C447.274728,109.751942 449.298109,115.492355 453.343266,119.872603 C457.386819,124.259298 463.068653,126.451033 470.388768,126.451033 C473.594728,126.451033 476.359427,125.743554 478.668424,124.32376 C480.98063,122.903967 482.968711,121.227934 484.640688,119.29405 L503.707966,139.411281 C499.210315,144.052603 493.915186,147.311198 487.817765,149.179008 C481.718739,151.046818 475.906934,151.984752 470.388768,151.984752 C463.193811,151.984752 456.424069,150.824421 450.068309,148.502149 C443.710946,146.179876 438.191175,142.861653 433.504183,138.539421 C428.817192,134.222025 425.126648,129.031157 422.430946,122.96843 C419.733639,116.908926 418.387393,110.138719 418.387393,102.65781 C418.387393,95.1817355 419.733639,88.4099174 422.430946,82.3471901 C425.126648,76.287686 428.817192,71.0984298 433.504183,66.7761983 C438.191175,62.4555785 443.710946,59.1357438 450.068309,56.8134711 C456.424069,54.4911983 463.193811,53.3324793 470.388768,53.3324793 C475.906934,53.3324793 481.718739,54.2688017 487.817765,56.1366116 C493.915186,58.0060331 499.210315,61.2630165 503.707966,65.9043388 L484.640688,86.0215702" id="Fill-7" fill="#FFFFFF"></path>
            <path d="M404.071289,149.662479 L376.339255,149.662479 L376.339255,136.897231 L375.95255,136.897231 C374.924011,138.703802 373.609857,140.507149 372.003668,142.312107 C370.399083,144.120289 368.44149,145.730248 366.130888,147.146818 C363.818682,148.568223 361.185559,149.726942 358.233123,150.629421 C355.279083,151.530289 352.069914,151.984752 348.604011,151.984752 C341.285501,151.984752 335.34533,150.85343 330.789914,148.600455 C326.229685,146.344256 322.699599,143.214587 320.194842,139.216281 C317.693295,135.221198 316.021318,130.513802 315.186934,125.095702 C314.35255,119.679215 313.936963,113.813099 313.936963,107.492521 L313.936963,55.6531405 L342.827507,55.6531405 L342.827507,101.690868 C342.827507,104.398306 342.922178,107.20405 343.116332,110.104876 C343.308883,113.005702 343.884928,115.685744 344.847679,118.133719 C345.81043,120.584917 347.285043,122.583264 349.279542,124.12876 C351.267622,125.675868 354.122178,126.451033 357.849628,126.451033 C361.570659,126.451033 364.588883,125.774174 366.901089,124.418843 C369.213295,123.066736 370.975129,121.260165 372.196218,119.003967 C373.415702,116.747769 374.219599,114.201488 374.604699,111.363512 C374.989799,108.52876 375.183954,105.558636 375.183954,102.464421 L375.183954,55.6531405 L404.071289,55.6531405 L404.071289,149.662479" id="Fill-4" fill="#FFFFFF"></path>
            <polyline id="Fill-6" fill="#FFFFFF" points="215.328825 3.04020661 245.376275 3.04020661 245.376275 121.808099 301.036103 121.808099 301.036103 149.662479 215.328825 149.662479 215.328825 3.04020661"></polyline>
            <path d="M76.1335515,39.4849831 C67.0920678,39.5849315 58.1109883,42.6000692 51.2247564,49.516281 C44.1950716,56.5846281 40.4756447,65.8559917 40.2173066,75.6108264 C40.2012607,80.6405372 38.2853868,85.6638017 34.4664756,89.4993388 C26.794957,97.2042562 14.3674499,97.2042562 6.69272206,89.4993388 C-0.988424069,81.7992562 -0.988424069,69.3144215 6.69272206,61.6095041 C10.6223496,57.6676033 15.7987393,55.7530579 20.9382235,55.8416942 C30.4165043,55.3872314 39.6396562,51.6661157 46.5522063,44.7138017 C53.5786819,37.6680165 56.4974212,28.6673967 56.4974212,19.429876 L56.5038395,19.4459917 C56.5840688,14.4984711 58.4855014,9.58318182 62.2402292,5.80566116 C64.3544212,3.68537114 66.8287389,2.14892288 69.4649547,1.19631637 C72.1011706,0.243709862 74.8992847,-0.125054895 77.6610695,0.0900220995 C82.1672464,0.440945521 86.5767084,2.34615854 90.0284241,5.80566116 C90.0549193,5.83238574 90.0813229,5.85916726 90.1076348,5.88600534 C93.995693,9.84563922 95.8822923,15.0436873 95.7674973,20.2038716 C95.9341779,29.1594351 98.8792625,37.8611782 105.708424,44.7138017 C112.627393,51.6661157 121.850544,55.3872314 131.325616,55.8416942 C136.468309,55.7530579 141.64149,57.6676033 145.574327,61.6095041 C153.245845,69.3144215 153.245845,81.7992562 145.574327,89.4993388 C137.89639,97.2042562 125.472092,97.2042562 117.800573,89.4993388 C113.975244,85.6638017 112.062579,80.6405372 112.054556,75.6108264 C111.788195,65.8559917 108.073582,56.5846281 101.042292,49.516281 C94.1528892,42.6000692 85.1764727,39.5849315 76.1335515,39.4849831 Z M34.4664756,145.303182 C42.1347851,137.595041 42.1347851,125.105372 34.4664756,117.400455 C26.7997708,109.689091 14.3674499,109.689091 6.69272206,117.400455 C-0.988424069,125.105372 -0.988424069,137.598264 6.69272206,145.303182 C14.3674499,153.003264 26.794957,153.003264 34.4664756,145.303182 Z M145.362521,33.7019421 C153.032436,25.9986364 153.032436,13.5186364 145.362521,5.81049587 C137.695817,-1.89603306 125.257077,-1.89603306 117.587163,5.81049587 C109.910831,13.5186364 109.910831,26.0018595 117.587163,33.7019421 C125.257077,41.4052479 137.692607,41.4052479 145.362521,33.7019421 Z M34.2675072,33.7019421 C35.7052149,32.2579752 36.8733524,30.6447934 37.7719198,28.9284711 C40.7692837,23.2041736 40.7692837,16.3130992 37.7719198,10.5871901 C36.8733524,8.8692562 35.7052149,7.25607438 34.2675072,5.81049587 C33.7877364,5.32863636 33.2903152,4.87739669 32.7752436,4.45516529 C29.1761605,1.50599174 24.7795989,0.0297933884 20.3798281,0.0297933884 C19.1234384,0.0297933884 17.8670487,0.150661157 16.6283095,0.390785124 C12.9153009,1.11438017 9.36756447,2.91933884 6.492149,5.81049587 C-1.18578797,13.5186364 -1.18578797,26.0018595 6.492149,33.7019421 C14.162063,41.4052479 26.5959885,41.4052479 34.2675072,33.7019421 Z" id="Combined-Shape" fill="#8CBF3F"></path>
        </g>
    </g>
</svg>